<?xml version="1.0" standalone="no"?>
<!DOCTYPE svg PUBLIC "-//W3C//DTD SVG 20010904//EN"
 "http://www.w3.org/TR/2001/REC-SVG-20010904/DTD/svg10.dtd">
<svg version="1.0" xmlns="http://www.w3.org/2000/svg"
 width="348.000000pt" height="348.000000pt" viewBox="0 0 348.000000 348.000000"
 preserveAspectRatio="xMidYMid meet">

<g transform="translate(0.000000,348.000000) scale(0.100000,-0.100000)"
fill="#000000" stroke="none">
<path d="M1865 3445 c0 -19 5 -35 10 -34 6 0 9 12 8 27 -1 14 3 30 10 34 8 5
5 8 -8 8 -16 0 -20 -7 -20 -35z"/>
<path d="M2230 3472 c-8 -4 -16 -15 -18 -24 -2 -16 6 -18 63 -18 53 0 67 3 72
18 4 9 11 20 17 24 14 10 -114 9 -134 0z"/>
<path d="M2442 3460 c15 -23 29 -25 46 -8 20 20 14 28 -23 28 -33 0 -34 -1
-23 -20z"/>
<path d="M3343 3447 c-24 -6 -43 -15 -43 -20 0 -5 7 -7 15 -3 14 5 44 0 138
-20 24 -6 27 -3 27 18 0 14 -6 25 -12 26 -7 0 -29 3 -48 5 -19 3 -54 0 -77 -6z"/>
<path d="M1736 3415 c-31 -27 -65 -36 -116 -31 -37 4 -112 -10 -143 -26 -10
-5 -22 -6 -28 -2 -5 3 -16 0 -25 -6 -8 -7 -28 -14 -45 -16 -29 -4 -79 -46 -79
-66 0 -5 -7 -8 -17 -8 -9 0 -45 -14 -80 -30 -51 -24 -62 -33 -55 -46 11 -20 3
-64 -12 -64 -7 0 -16 -15 -21 -32 -8 -25 -15 -32 -30 -30 -15 2 -17 1 -6 -6 7
-6 10 -15 7 -21 -10 -16 -26 -14 -26 3 0 8 -4 18 -10 21 -7 4 -7 -3 0 -20 9
-23 7 -27 -17 -36 -18 -7 -30 -6 -37 1 -5 5 -14 10 -19 10 -16 0 3 -18 38 -34
35 -17 43 -30 25 -41 -16 -10 -11 -33 6 -31 19 1 20 -7 29 -129 3 -44 12 -98
20 -120 7 -22 18 -71 24 -108 5 -38 15 -75 21 -82 9 -10 6 -19 -9 -34 -12 -12
-21 -34 -21 -49 0 -48 49 -187 81 -232 25 -35 27 -41 11 -36 -10 4 -27 3 -37
0 -16 -7 -16 -8 6 -17 32 -13 43 -14 50 -5 3 5 21 2 41 -6 28 -12 37 -23 42
-48 3 -18 17 -57 31 -86 13 -29 27 -82 31 -117 7 -69 -2 -155 -16 -155 -5 0
-41 -31 -79 -69 -79 -78 -140 -111 -251 -136 -111 -25 -214 -58 -310 -99 -47
-20 -77 -30 -68 -23 9 7 16 20 16 28 -5 87 12 109 52 69 27 -27 70 -27 77 0 3
11 9 20 13 20 12 0 19 39 9 46 -5 3 -5 13 1 25 6 10 7 20 3 20 -18 3 -61 7
-110 10 -39 2 -57 -1 -71 -15 -25 -22 -86 -28 -109 -10 -10 7 -25 14 -35 14
-9 0 -18 5 -20 12 -3 7 -21 13 -41 13 -31 1 -38 -2 -43 -22 -4 -13 1 -45 10
-72 18 -57 21 -91 5 -91 -6 0 -7 -5 -2 -12 10 -17 10 -118 0 -118 -4 0 -7 -7
-5 -17 2 -11 -12 -24 -44 -40 -44 -22 -47 -26 -58 -81 -24 -125 -33 -152 -44
-137 -14 18 -94 36 -102 24 -3 -6 -10 -40 -15 -77 -6 -45 -15 -72 -28 -83 -13
-10 -16 -20 -11 -29 5 -8 6 -18 3 -22 -6 -11 15 -38 29 -38 6 0 8 7 4 15 -3 8
-1 15 4 15 6 0 10 -6 10 -14 0 -8 3 -21 6 -30 4 -11 -2 -19 -20 -26 -14 -5
-26 -16 -26 -24 0 -8 -2 -21 -5 -29 -4 -9 5 -19 23 -28 l29 -14 -19 -55 c-10
-30 -32 -93 -48 -140 -15 -47 -40 -116 -54 -154 -22 -58 -26 -84 -26 -177 l0
-109 834 0 c651 0 836 3 839 13 4 9 6 9 6 0 1 -9 208 -12 901 -13 l900 0 0 60
c0 53 -2 60 -20 60 -11 0 -20 7 -20 15 0 25 4 30 23 28 14 -2 17 5 17 42 0 41
-2 45 -25 45 -27 0 -42 33 -30 69 5 17 10 19 25 11 10 -6 21 -10 24 -10 3 0 6
211 6 470 0 457 -1 470 -19 470 -11 0 -22 6 -24 13 -4 7 -8 4 -12 -9 -5 -17
-53 -44 -77 -44 -3 0 -11 14 -19 31 -12 29 -11 33 10 50 27 22 47 23 81 4 14
-8 33 -14 43 -15 16 0 17 15 17 175 l0 175 -60 0 c-33 0 -60 -4 -60 -10 0 -5
6 -10 14 -10 17 0 49 -47 41 -60 -10 -16 -33 -12 -55 10 -24 24 -55 27 -46 5
3 -10 -3 -17 -19 -21 -26 -6 -26 -15 -7 -79 3 -11 6 -50 7 -87 l1 -67 -49 -12
c-27 -6 -54 -20 -60 -30 -7 -11 -15 -19 -20 -19 -4 0 -5 5 -2 10 4 6 2 16 -3
23 -5 7 -13 27 -17 44 -5 24 -17 38 -46 55 -47 26 -49 43 -8 66 17 9 49 33 71
53 38 35 39 37 16 43 -13 3 -43 6 -66 6 -36 0 -45 -4 -49 -20 -3 -11 -9 -20
-13 -20 -4 0 -12 -17 -19 -37 -7 -21 -15 -44 -17 -50 -3 -7 5 -17 20 -22 24
-10 25 -11 9 -41 -8 -17 -12 -34 -9 -37 3 -3 -2 -12 -12 -19 -16 -12 -16 -14
3 -28 20 -16 90 -51 133 -67 21 -8 23 -7 18 8 -6 14 -3 13 13 -3 11 -12 26
-24 33 -27 7 -2 10 -7 6 -11 -3 -4 -14 -3 -25 2 -10 5 -43 18 -73 28 -30 9
-72 29 -95 44 -22 14 -71 40 -110 57 -148 66 -232 101 -278 118 -27 9 -47 19
-45 21 6 5 76 -21 219 -81 139 -59 143 -60 134 -46 -3 6 0 13 8 18 12 8 37 56
37 73 0 9 -64 30 -108 35 -13 1 -30 11 -37 22 -8 11 -39 32 -70 47 -31 14 -58
33 -62 41 -3 9 -25 25 -49 36 -39 17 -48 18 -72 7 -23 -12 -27 -19 -24 -51 3
-40 -9 -47 -41 -23 -17 13 -17 14 1 18 12 3 18 16 20 39 1 25 0 30 -8 19 -7
-12 -12 -12 -22 -2 -6 6 -25 12 -40 12 -16 0 -27 5 -26 12 4 16 -41 37 -93 44
-38 5 -48 2 -74 -20 l-30 -26 -38 40 c-21 22 -40 40 -42 40 -2 0 3 -16 11 -35
32 -77 15 -141 -103 -384 -106 -219 -105 -217 -108 -266 -3 -50 -15 -107 -25
-120 -5 -5 -20 -64 -35 -129 -15 -66 -31 -131 -37 -145 -5 -14 -23 -89 -39
-165 -30 -144 -45 -185 -43 -115 1 27 -3 43 -15 50 -14 9 -14 10 2 5 22 -7 22
10 0 23 -10 6 -13 11 -6 11 15 0 16 8 7 185 -4 66 -9 122 -13 125 -3 3 -7 37
-9 75 -2 57 -9 84 -38 143 -21 43 -33 80 -29 91 7 25 52 42 90 35 17 -3 56 -9
88 -13 l57 -7 -92 93 c-50 50 -96 89 -101 86 -6 -3 -7 -1 -4 4 4 6 -3 19 -14
29 -11 10 -17 24 -15 31 8 20 -1 16 -60 -23 -30 -20 -68 -56 -85 -79 -20 -27
-37 -41 -45 -38 -12 4 -11 8 3 20 10 8 11 11 3 7 -13 -7 -13 -6 -1 10 9 11 11
20 5 24 -17 12 -42 107 -37 138 6 32 21 56 32 50 4 -3 7 4 7 14 0 10 -6 16
-12 13 -9 -3 -11 3 -7 18 5 17 3 20 -7 14 -8 -5 -11 -4 -6 3 7 11 60 -20 170
-99 53 -38 60 -41 80 -29 52 33 204 151 231 181 19 20 2 10 -45 -27 -89 -70
-117 -87 -125 -75 -3 5 1 12 7 14 8 3 6 6 -4 6 -24 1 -24 62 -1 97 13 20 14
32 5 60 -5 18 -6 34 -1 34 4 0 30 20 56 45 26 25 56 47 66 51 9 3 15 10 12 15
-4 5 3 9 14 9 12 0 21 5 21 12 0 6 7 20 17 30 38 43 -14 29 -71 -20 -26 -21
-36 -23 -80 -17 -27 3 -63 14 -80 23 -17 9 -36 15 -42 14 -14 -3 -24 31 -17
57 5 20 49 41 85 41 10 0 30 7 44 17 l25 16 -28 12 c-15 7 -45 15 -65 19 -21
4 -38 11 -38 16 0 10 5 12 33 14 6 1 18 6 25 13 7 7 33 11 62 9 27 -1 55 1 61
5 15 9 3 29 -17 29 -8 0 -35 9 -60 21 -25 11 -55 19 -67 19 -60 -5 -84 9 -68
38 11 21 38 20 53 -2 4 -5 5 18 2 51 l-5 62 27 -5 c15 -3 35 -9 45 -15 27 -14
33 7 8 25 -14 10 -29 12 -43 6 -30 -11 -78 11 -95 43 -11 21 -12 35 -3 64 6
21 10 84 8 140 -2 56 0 106 3 112 4 6 17 9 29 8 18 -1 22 -6 18 -20 -3 -12 5
-29 20 -44 13 -13 24 -28 24 -33 0 -6 14 -23 31 -40 26 -25 40 -30 78 -30 47
0 97 19 56 21 -23 1 22 17 65 23 14 2 28 4 33 5 13 2 7 29 -8 35 -23 8 -18 32
11 55 20 16 24 24 16 34 -8 10 -8 24 -1 52 l11 39 28 -34 c16 -19 32 -53 36
-75 3 -22 16 -69 27 -105 11 -36 19 -89 19 -118 -1 -49 0 -52 18 -42 21 11 27
30 10 30 -5 0 -10 24 -10 53 0 47 4 56 39 93 35 36 39 46 39 91 1 28 9 79 18
114 9 35 18 100 20 144 1 44 7 93 13 108 6 16 9 33 5 38 -3 5 -1 9 3 9 5 0 9
9 10 20 1 11 -2 20 -7 20 -10 0 -8 60 3 78 11 16 -11 37 -46 44 -21 4 -25 2
-17 -7 8 -9 4 -12 -17 -12 -16 0 -23 2 -16 4 8 3 6 15 -8 38 -21 34 -35 37
-68 11 -12 -9 -12 -8 0 12 8 12 17 22 20 22 4 0 9 9 12 20 3 11 0 20 -6 20 -6
0 4 12 22 27 29 24 30 28 14 34 -24 9 -245 -1 -259 -12 -6 -5 -14 -6 -18 -2
-7 8 -29 13 -66 17 -14 1 -42 8 -62 15 -21 7 -43 9 -49 6 -8 -6 -8 -2 0 12 8
17 6 22 -13 31 -19 8 -28 6 -50 -13z m287 -99 c4 -9 -2 -13 -18 -13 -16 0 -22
4 -18 13 3 8 11 14 18 14 7 0 15 -6 18 -14z m-97 -601 c-5 -13 -2 -14 15 -4
11 6 27 8 35 5 8 -3 14 -1 14 4 0 6 7 10 15 10 8 0 15 -5 15 -11 0 -5 -5 -7
-12 -3 -6 4 -8 3 -5 -4 11 -17 -4 -44 -21 -37 -8 3 -23 -4 -35 -15 -13 -15
-29 -21 -51 -19 -17 2 -36 0 -41 -3 -6 -3 -28 -8 -50 -9 -33 -3 -40 -1 -40 14
0 9 3 16 6 15 4 -2 16 5 26 15 11 9 22 14 26 11 3 -3 10 3 16 14 16 29 98 45
87 17z m-361 -357 c-3 -18 -7 -49 -9 -68 -3 -27 -9 -36 -30 -41 -14 -4 -26 -4
-26 -1 0 4 -11 19 -24 33 -31 33 -40 63 -23 77 7 6 35 15 62 20 28 5 51 10 53
11 2 0 0 -14 -3 -31z m-219 -748 c-5 -27 -12 -48 -14 -46 -6 7 10 96 17 96 4
0 3 -22 -3 -50z m964 -15 c13 -14 21 -25 18 -25 -2 0 -15 11 -28 25 -13 14
-21 25 -18 25 2 0 15 -11 28 -25z m55 -43 c-3 -3 -11 0 -18 7 -9 10 -8 11 6 5
10 -3 15 -9 12 -12z m175 -65 c30 -12 48 -23 40 -24 -8 -2 -42 11 -75 28 -63
32 -55 31 35 -4z m-2016 -16 c21 -23 13 -28 -34 -27 -38 1 -56 31 -23 39 33 9
40 7 57 -12z m41 -111 c-1 -8 4 -19 11 -25 11 -8 0 -17 -44 -38 l-57 -27 28
25 c20 18 26 29 20 40 -5 8 -7 31 -5 50 l4 36 22 -23 c12 -13 22 -30 21 -38z
m874 -257 c21 -45 29 -54 57 -59 30 -6 34 -10 44 -58 9 -45 7 -71 -14 -177
-24 -123 -45 -348 -47 -517 -1 -48 -4 -100 -8 -117 -4 -16 -6 90 -6 237 1 271
-6 352 -19 244 -10 -76 -34 -187 -36 -161 0 11 -5 52 -10 90 -23 181 -32 302
-32 447 0 87 4 162 7 169 8 12 27 -17 64 -98z m91 49 c0 -5 -7 -17 -16 -28 -8
-10 -14 -14 -11 -9 2 6 7 18 10 28 7 17 17 23 17 9z m230 -281 c0 -5 -9 -7
-20 -4 -11 3 -20 7 -20 9 0 2 9 4 20 4 11 0 20 -4 20 -9z m-1575 -120 c-3 -12
-11 -18 -17 -15 -6 4 -5 10 3 15 8 5 10 9 6 9 -5 0 -5 5 -2 11 11 16 18 3 10
-20z m1490 -151 c3 -5 1 -10 -4 -10 -6 0 -11 5 -11 10 0 6 2 10 4 10 3 0 8 -4
11 -10z m-75 -79 c0 -5 -9 -7 -20 -4 -11 3 -20 7 -20 9 0 2 9 4 20 4 11 0 20
-4 20 -9z m0 -27 c0 -2 -9 -4 -20 -4 -11 0 -20 4 -20 9 0 5 9 7 20 4 11 -3 20
-7 20 -9z m-25 -24 c3 -5 1 -10 -4 -10 -6 0 -11 5 -11 10 0 6 2 10 4 10 3 0 8
-4 11 -10z m5 -30 c0 -5 -4 -10 -10 -10 -5 0 -10 5 -10 10 0 6 5 10 10 10 6 0
10 -4 10 -10z m120 -20 c0 -5 -2 -10 -4 -10 -3 0 -8 5 -11 10 -3 6 -1 10 4 10
6 0 11 -4 11 -10z m-120 -10 c0 -5 -2 -10 -4 -10 -3 0 -8 5 -11 10 -3 6 -1 10
4 10 6 0 11 -4 11 -10z m0 -26 c0 -2 -9 -4 -20 -4 -11 0 -20 4 -20 9 0 5 9 7
20 4 11 -3 20 -7 20 -9z m120 6 c0 -5 -2 -10 -4 -10 -3 0 -8 5 -11 10 -3 6 -1
10 4 10 6 0 11 -4 11 -10z m-120 -36 c0 -2 -9 -4 -20 -4 -11 0 -20 4 -20 9 0
5 9 7 20 4 11 -3 20 -7 20 -9z m-10 -24 c12 -8 11 -10 -7 -10 -13 0 -23 5 -23
10 0 13 11 13 30 0z m80 -19 c0 -5 -9 -7 -20 -4 -11 3 -20 7 -20 9 0 2 9 4 20
4 11 0 20 -4 20 -9z m-70 -17 c0 -2 -7 -4 -15 -4 -8 0 -15 4 -15 10 0 5 7 7
15 4 8 -4 15 -8 15 -10z m140 6 c0 -5 -4 -10 -10 -10 -5 0 -10 5 -10 10 0 6 5
10 10 10 6 0 10 -4 10 -10z m-77 -17 c-7 -2 -19 -2 -25 0 -7 3 -2 5 12 5 14 0
19 -2 13 -5z m-63 -19 c0 -2 -7 -4 -15 -4 -8 0 -15 4 -15 10 0 5 7 7 15 4 8
-4 15 -8 15 -10z m140 12 c0 -3 -4 -8 -10 -11 -5 -3 -10 -1 -10 4 0 6 5 11 10
11 6 0 10 -2 10 -4z m-140 -42 c0 -2 -7 -4 -15 -4 -8 0 -15 4 -15 10 0 5 7 7
15 4 8 -4 15 -8 15 -10z m90 -13 c0 -5 -9 -7 -20 -4 -11 3 -20 7 -20 9 0 2 9
4 20 4 11 0 20 -4 20 -9z m-90 -17 c0 -2 -7 -4 -15 -4 -8 0 -15 4 -15 10 0 5
7 7 15 4 8 -4 15 -8 15 -10z m90 -8 c0 -3 -4 -8 -10 -11 -5 -3 -10 -1 -10 4 0
6 5 11 10 11 6 0 10 -2 10 -4z m70 -10 c0 -3 -4 -8 -10 -11 -5 -3 -10 -1 -10
4 0 6 5 11 10 11 6 0 10 -2 10 -4z m-140 -16 c0 -6 -11 -8 -27 -4 -40 10 -41
14 -5 14 18 0 32 -5 32 -10z m-33 -26 c-3 -3 -12 -4 -19 -1 -8 3 -5 6 6 6 11
1 17 -2 13 -5z m53 -4 c0 -5 -5 -10 -11 -10 -5 0 -7 5 -4 10 3 6 8 10 11 10 2
0 4 -4 4 -10z m65 -10 c3 -5 1 -10 -4 -10 -6 0 -11 5 -11 10 0 6 2 10 4 10 3
0 8 -4 11 -10z m-45 -26 c0 -2 -9 -4 -20 -4 -11 0 -20 4 -20 9 0 5 9 7 20 4
11 -3 20 -7 20 -9z m-77 -51 c-7 -2 -19 -2 -25 0 -7 3 -2 5 12 5 14 0 19 -2
13 -5z"/>
<path d="M2954 3418 c-8 -13 85 -98 107 -98 12 0 43 13 68 28 25 15 66 36 91
47 25 10 50 23 55 28 6 5 -58 7 -153 6 -90 -2 -166 -7 -168 -11z"/>
<path d="M2625 3389 c-55 -5 -120 -8 -143 -8 -58 0 -52 -25 6 -29 37 -3 42 -6
42 -27 0 -17 -9 -29 -29 -40 -28 -14 -61 -51 -61 -67 0 -11 44 -10 76 2 39 15
85 19 110 10 17 -7 23 -5 27 11 3 10 12 19 20 19 8 0 17 11 19 25 6 27 -7 50
-32 58 -10 3 -6 8 13 16 46 18 86 13 113 -14 l25 -25 29 32 c16 17 27 35 24
40 -6 9 -94 8 -239 -3z"/>
<path d="M3465 3305 c-3 -8 -7 -22 -10 -31 -3 -8 -8 -13 -13 -11 -13 9 -38
-17 -45 -44 -6 -23 -3 -28 19 -33 53 -14 64 -1 64 70 0 62 -6 80 -15 49z"/>
<path d="M2756 3172 c-3 -5 3 -24 12 -42 18 -36 50 -46 79 -25 13 9 13 16 4
34 -17 31 -82 54 -95 33z"/>
<path d="M3052 2938 c-19 -19 -14 -28 14 -28 18 0 25 5 22 17 -4 21 -21 26
-36 11z"/>
<path d="M2393 2865 c-10 -11 -10 -14 0 -18 16 -5 67 13 67 24 0 14 -54 10
-67 -6z"/>
<path d="M2476 2765 c-15 -19 -33 -35 -41 -35 -7 0 -17 -10 -20 -22 -4 -13
-15 -32 -24 -43 -9 -11 -24 -34 -34 -51 -15 -28 -15 -33 -2 -44 8 -7 15 -9 15
-4 0 5 7 1 14 -9 9 -12 16 -14 21 -8 3 6 17 11 29 11 31 0 40 -33 15 -56 -10
-9 -19 -20 -19 -24 0 -12 41 -19 72 -13 22 4 28 10 26 27 -2 13 -12 22 -25 24
-28 4 -30 23 -3 40 11 7 30 34 43 60 29 60 53 64 130 20 51 -29 57 -36 54 -61
-2 -19 2 -31 13 -37 30 -16 57 -1 69 39 6 22 21 43 36 51 25 13 34 30 15 30
-5 0 -10 6 -10 14 0 14 -84 31 -205 41 -60 5 -91 24 -108 68 -10 27 -32 20
-61 -18z"/>
<path d="M682 2691 c4 -13 18 -16 19 -4 0 4 -5 9 -11 12 -7 2 -11 -2 -8 -8z"/>
<path d="M3044 2580 c-28 -11 -56 -70 -42 -87 6 -7 17 -13 24 -13 8 0 14 -5
14 -11 0 -6 18 4 40 21 69 55 43 122 -36 90z"/>
<path d="M36 2528 c-6 -18 -26 -98 -32 -125 -3 -19 0 -23 19 -23 13 0 32 -9
42 -20 10 -11 26 -20 37 -20 15 0 18 8 18 44 0 34 5 49 23 63 80 67 71 93 -35
93 -46 0 -70 -4 -72 -12z"/>
<path d="M2280 2491 c0 -6 5 -13 10 -16 6 -3 10 1 10 9 0 9 -4 16 -10 16 -5 0
-10 -4 -10 -9z"/>
<path d="M2320 2384 c0 -47 0 -47 20 -29 11 10 30 23 42 29 30 15 33 31 6 33
-13 1 -33 5 -45 8 -21 5 -23 2 -23 -41z"/>
<path d="M2480 2416 c0 -9 6 -16 13 -16 16 0 46 20 30 20 -6 0 -18 3 -27 6
-11 4 -16 1 -16 -10z"/>
<path d="M2448 2413 c7 -3 16 -2 19 1 4 3 -2 6 -13 5 -11 0 -14 -3 -6 -6z"/>
<path d="M2730 2400 c-91 -9 -67 -12 95 -11 214 0 212 0 195 11 -16 10 -183
10 -290 0z"/>
<path d="M3185 2390 c-3 -5 -1 -10 4 -10 6 0 11 5 11 10 0 6 -2 10 -4 10 -3 0
-8 -4 -11 -10z"/>
<path d="M3320 2381 c0 -6 11 -13 25 -17 29 -7 135 4 135 14 0 4 -36 8 -80 10
-52 2 -80 0 -80 -7z"/>
<path d="M317 2300 c-14 -11 -30 -20 -36 -20 -5 0 -16 -9 -24 -20 -8 -11 -16
-18 -19 -15 -2 3 -15 -6 -28 -20 -21 -22 -22 -29 -13 -59 13 -41 1 -55 -59
-77 -61 -21 -64 -69 -5 -69 24 0 37 -7 52 -30 35 -52 52 -40 59 40 6 70 15 90
41 90 13 0 25 -4 27 -10 7 -21 53 16 62 50 5 19 14 38 19 41 13 9 11 72 -2 98
-15 26 -41 27 -74 1z"/>
<path d="M2312 2315 c4 -4 3 -14 -4 -22 -6 -7 -8 -16 -5 -19 3 -3 10 3 16 15
8 15 8 22 -1 27 -7 4 -10 4 -6 -1z"/>
<path d="M2855 2288 c-23 -20 -26 -28 -17 -44 10 -19 70 -44 104 -44 9 0 27
-9 41 -20 38 -30 61 -25 80 15 22 45 22 44 -9 80 -23 27 -32 30 -98 33 -65 4
-75 2 -101 -20z"/>
<path d="M485 2240 c-4 -7 -3 -16 3 -22 13 -13 54 0 49 15 -5 16 -43 21 -52 7z"/>
<path d="M3209 2148 c-1 -24 -3 -53 -4 -64 -2 -19 4 -22 63 -27 81 -8 104 3
100 46 -2 25 -9 33 -28 37 -14 3 -44 15 -67 28 -23 12 -47 22 -53 22 -5 0 -11
-19 -11 -42z"/>
<path d="M2595 2092 c-11 -2 -36 -19 -56 -38 l-35 -34 -53 12 c-44 10 -54 10
-62 -3 -25 -39 7 -52 87 -33 16 3 48 7 71 9 49 2 68 15 78 52 7 30 -2 41 -30
35z"/>
<path d="M1040 2000 c0 -5 -7 -10 -15 -10 -8 0 -15 -9 -15 -20 0 -26 7 -25 36
3 27 26 30 37 9 37 -8 0 -15 -4 -15 -10z"/>
<path d="M0 1933 c1 -57 1 -58 16 -30 8 15 21 27 29 27 8 0 15 6 15 14 0 30
-13 46 -36 46 -23 0 -24 -3 -24 -57z"/>
<path d="M1213 1964 c-3 -9 3 -24 14 -36 19 -19 22 -19 49 -4 16 8 24 15 18
16 -7 0 -14 9 -17 20 -6 25 -55 28 -64 4z"/>
<path d="M1286 1895 c4 -8 11 -15 16 -15 6 0 5 6 -2 15 -7 8 -14 15 -16 15 -2
0 -1 -7 2 -15z"/>
<path d="M895 1735 c-12 -10 -30 -13 -51 -9 -28 5 -47 -1 -93 -32 -2 -2 13
-20 33 -40 20 -20 36 -40 36 -45 0 -4 11 -4 25 0 27 7 118 118 109 133 -8 12
-37 9 -59 -7z"/>
<path d="M65 1700 c-13 -15 -22 -17 -36 -10 -25 14 -29 13 -29 -10 0 -16 6
-19 37 -17 28 1 38 -2 38 -13 0 -17 44 -25 82 -15 21 5 24 10 18 33 -4 15 -11
33 -17 39 -16 20 -72 16 -93 -7z"/>
<path d="M2952 1578 c6 -18 28 -21 28 -4 0 9 -7 16 -16 16 -9 0 -14 -5 -12
-12z"/>
<path d="M156 1362 c-3 -6 -1 -14 5 -17 15 -10 25 3 12 16 -7 7 -13 7 -17 1z"/>
<path d="M0 1175 c0 -8 4 -15 9 -15 5 0 11 7 15 15 3 9 0 15 -9 15 -8 0 -15
-7 -15 -15z"/>
<path d="M0 868 c0 -204 1 -211 18 -194 17 15 18 22 7 80 -7 35 -9 70 -4 77 4
8 3 35 -1 61 -6 27 -5 70 0 103 9 56 5 85 -11 85 -5 0 -9 -94 -9 -212z"/>
</g>
</svg>
